<?xml version="1.0" encoding="utf-8"?>
<!-- Generator: Adobe Illustrator 23.0.1, SVG Export Plug-In . SVG Version: 6.00 Build 0)  -->
<svg version="1.1" id="b6fe4ea4-91cd-4e88-acbb-2663d3326f54" width="1013.02965" height="844.99456"
	 xmlns="http://www.w3.org/2000/svg" xmlns:xlink="http://www.w3.org/1999/xlink" x="0px" y="0px" viewBox="0 0 1013 845"
	 style="enable-background:new 0 0 1013 845;" xml:space="preserve">
<style type="text/css">
	.st0{fill:#E63786;}
	.st1{fill:#A0616A;}
	.st2{fill:#2F2E41;}
	.st3{fill:#D0CDE1;}
	.st4{opacity:0.15;enable-background:new    ;}
	.st5{fill:#3F3D56;}
	.st6{fill:#FFFFFF;}
</style>
<title>new_ideas</title>
<g>
	<path class="st0" d="M938.4,173.3C898,72,796.2,0,676.9,0c-69.5,0-131,24.5-178.6,65l238.3-4.1L469.9,93l0,0
		c-41.9,47.5-68.3,109.6-73.1,177.3c-11.9,167.9,16.6,440.3,280.1,270.3c89.3-57.6,188-93.2,241.1-158.1L689.6,355l244.7,4.2
		c14.4-24.8,22.8-53.8,22.8-88.9h0c0-23.4-3.1-46.6-9.3-69.1L560.6,151L938.4,173.3"/>
	<path class="st0" d="M947.3,199.6"/>
</g>
<g>
	<path class="st0" d="M372.8,89c0.4,0.5,0.8,1.1,1.3,1.6C373.6,90,373.2,89.5,372.8,89z"/>
	<path class="st0" d="M422.9,69.7c-0.7-8.2-4.9-15.6-11.5-20.4c-12.5-9-30-6.2-39.1,6.3l29.7-0.5l-31.8,3.8c-1.8,3.4-2.9,7.2-3.2,11
		c-0.5,7,1.6,13.6,5.5,18.8c-0.5-0.6-0.9-1.3-1.3-1.9l41.7-0.7l-38.8,4.7c4.7,5.2,11.2,8.6,18.7,9.1c15.4,1.1,28.8-10.5,30-25.9
		L381,69L422.9,69.7z"/>
</g>
<g>
	<path class="st0" d="M807.7,574.1L807.7,574.1c3.2-7.5,3-16.1-0.6-23.5c-6.8-13.9-23.6-19.6-37.5-12.7c-1.2,0.6-2.3,1.2-3.4,2
		c-3.2,2.2-5.9,5-8,8.3c-3.7,5.9-4.9,12.8-3.9,19.2c-0.1-0.8-0.2-1.5-0.3-2.3l37.2,18.9l-36.4-14c1.7,6.7,5.9,12.9,12.2,16.9
		c13.1,8.2,30.4,4.3,38.6-8.8l-34.7-24.1L807.7,574.1z M769.7,537.9l26.5,13.5l-29.8-11.5C767.4,539.1,768.5,538.5,769.7,537.9z"/>
	<path class="st0" d="M754.4,567.5c0.1,0.7,0.2,1.3,0.4,2C754.7,568.9,754.5,568.2,754.4,567.5z"/>
</g>
<path class="st0" d="M1006.4,95l-33.5,25.7l30.5-28.7c-6.2-5.4-14.4-7.8-22.5-6.6c-15.3,2.3-25.8,16.5-23.5,31.8
	c0.2,1.3,0.5,2.6,0.8,3.8c1.1,3.7,2.9,7.2,5.4,10.1c4.5,5.4,10.6,8.6,17.1,9.6c-0.8-0.1-1.5-0.3-2.3-0.5l29.4-29.7l-24.5,30.4
	c6.9,0.4,14.1-1.7,19.8-6.5C1014.9,124.5,1016.4,106.8,1006.4,95z M958.2,120.9c-0.4-1.2-0.7-2.5-0.8-3.8L978.3,96L958.2,120.9z"/>
<path class="st1" d="M479.8,609.5c0,0,61.4,2.6,61.4,17.9s-69.1,0-69.1,0L479.8,609.5z"/>
<path class="st2" d="M387.6,845l-115.2-7.7l-5.1-61.4l-25.6,53.8L129,814.3c2.6-97.3,43.5-192,46.1-204.8s8.7-65.7,8.7-65.7
	c11.2-23.7,69.8-26,115.8-23.8c19,0.9,35.9,2.5,46.4,3.7c6.9,0.8,11,1.3,11,1.3c18.4,18.9,30.2,44.7,37.5,73.5
	C420.6,702.2,387.6,845,387.6,845z"/>
<circle class="st1" cx="259.6" cy="187" r="64"/>
<path class="st1" d="M216.1,202.4c0,0-17.9,79.4-46.1,102.4s110.1,0,110.1,0s-30.7-51.2-7.7-74.2S216.1,202.4,216.1,202.4z"/>
<path class="st3" d="M346.6,530.1l-42.5,4.7L185.4,548c0,0-0.6-1.5-1.6-4.3c-8.6-23.5-50.2-138-54.8-172.4
	c-5.1-38.4,48.6-84.5,48.6-84.5s51.2-10.2,66.6-10.2s76.8,23,76.8,23L344,505.8l2,17.8L346.6,530.1z"/>
<path class="st4" d="M394.3,598.5L308.2,548c0,0-1.5-4.9-4.1-13.2c-1.3-4.1-2.8-9.2-4.6-14.8c-9.9-31.9-26.6-84.5-40-123
	c-20.5-58.9,79.4,105,79.4,105l5,3.9l2,17.8c6.9,0.8,11,1.3,11,1.3C375.2,543.9,387.1,569.7,394.3,598.5z"/>
<path class="st3" d="M280.1,304.8c0,0-25.6,33.3-5.1,92.2S323.6,548,323.6,548l148.5,87l20.5-25.6L354.3,501.9
	c0,0-5.1-194.6-30.7-202.3S280.1,304.8,280.1,304.8z"/>
<path class="st1" d="M153.4,528.8c0,0,35.8,74.2,51.2,66.6s-38.4-84.5-38.4-84.5L153.4,528.8z"/>
<path class="st3" d="M149.5,325.3L13.8,437.9c0,0-51.2,35.8,43.5,61.4c94.7,25.6,102.4,41,102.4,41s10.2-33.3,23-28.2L72.7,458.4
	l89.6-53.8L149.5,325.3z"/>
<path class="st2" d="M95,239.5c7.1-3.5,22.8-10.6,36.2-19.2c-0.9-27.9,2.5-53.2,12.6-66.6c5.6-12.8,17.5-25.6,26.8-35.8
	c22.8-24.8,73.2-38.7,82.2-26.3c67.6,1.3,74.7,54.3,74.7,54.3c-0.4,22.2-23.4,22.9-43.6,22.1c1.8,15.1-3,30.9-17,37.8
	c-26.7,13.3-34.7,30.7-21.3,42.7s37.3,44,5.3,52s-36,24-26.7,30.7s-21.3-12-21.3-12s-5.3,32-33.3,24c-2.5-0.7-5-2.6-7.5-5.3
	c-7.6,8.3-14.3,13.2-19.4,13.3c-29.1,0.2-25.6-32.1-25.6-32.1s-34.6,9.7-23.8,5.8s11.3-20.4-17.4-36.7S78.9,247.5,95,239.5z"/>
<path class="st5" d="M452.4,323.2l-0.5-0.1l1.1,4.3c1.1,6,2.6,11.9,4.7,17.7l33.2,126.3c2.2,8.2,9,14.4,17.4,15.7l67.8,10.5
	c9,1.4,17.9-3,22.1-11.1l64.4-120.3c2-3.3,3.9-6.8,5.5-10.3l2.2-4.1l-0.3,0c24.5-57.9-2.6-124.7-60.5-149.2s-124.7,2.6-149.2,60.5
	C452.3,282.1,449.6,302.8,452.4,323.2L452.4,323.2z"/>
<path class="st6" d="M580.3,505.9c-1.2,0-2.4-0.1-3.6-0.3l-70.8-11c-9.2-1.4-16.7-8.2-19-17.2l-34.7-132c-2.1-6-3.8-12.2-4.9-18.6
	l-0.9-5.8c-8.4-65.8,38.1-125.9,103.8-134.3c11.2-1.4,22.5-1.3,33.6,0.4l-0.3,2c-64.4-9.9-124.7,34.3-134.7,98.7
	c-1.7,11.3-1.8,22.9-0.3,34.2l0.7,4.3c1.1,6.3,2.7,12.4,4.8,18.4L488.8,477c2.2,8.2,9,14.4,17.4,15.7l70.8,11c9,1.4,17.8-3,22.1-11
	l1.8,0.9C596.8,501.1,588.9,505.8,580.3,505.9z"/>
<rect x="515.3" y="409.9" transform="matrix(0.3439 -0.939 0.939 0.3439 -6.927 812.4268)" class="st6" width="125.3" height="2.6"/>
<rect x="528" y="341" transform="matrix(0.999 -4.389541e-02 4.389541e-02 0.999 -17.2084 23.6245)" class="st6" width="2.6" height="125.3"/>
<path class="st5" d="M574.3,565.7l-90.8-14c-1.4-0.2-2.4-1.6-2.1-3c0.2-1.4,1.5-2.4,2.9-2.1l90.8,14c1.4,0.2,2.4,1.5,2.2,2.9
	C577,565,575.7,565.9,574.3,565.7C574.3,565.7,574.3,565.7,574.3,565.7z"/>
<path class="st5" d="M576.6,546.4l-90.8-14c-1.4-0.2-2.4-1.5-2.2-2.9c0.2-1.4,1.5-2.4,2.9-2.2c0,0,0,0,0,0l90.8,14
	c1.4,0.2,2.4,1.5,2.2,2.9C579.4,545.7,578.1,546.7,576.6,546.4C576.6,546.4,576.6,546.4,576.6,546.4z"/>
<path class="st5" d="M578.9,527.2l-90.8-14c-1.4-0.2-2.4-1.6-2.1-3c0.2-1.4,1.5-2.4,2.9-2.1l90.8,14c1.4,0.2,2.4,1.6,2.1,3
	C581.7,526.4,580.3,527.4,578.9,527.2L578.9,527.2z"/>
<path class="st5" d="M526.1,576.9c18,2.8,34.1-5,36.1-17.4L497,549.5C495,561.9,508.1,574.1,526.1,576.9z"/>
<path class="st6" d="M558.7,327.1c-3.9-0.6-7.1-3.7-8.8-5.7c-0.6-0.7-1.1-1.4-1.7-2.1c-2-2.5-4-5-6.7-6.2c-5.9-2.8-12.9,1.1-19,5.2
	l-1.5-2.1c6.7-4.6,14.4-8.8,21.5-5.5c3.2,1.5,5.4,4.3,7.6,6.9c0.5,0.7,1.1,1.4,1.6,2c1.8,2.1,5.5,5.6,9.4,4.8
	c1.6-0.5,3.2-1.3,4.5-2.4c1-0.8,2.1-1.4,3.2-2c4.6-2.2,10.1-1.4,13.9,2c0.7,0.6,1.3,1.3,1.9,2c1.2,1.3,2.3,2.6,3.7,3
	c2.1,0.7,4.3-0.5,6.7-1.8c2.4-1.3,5-2.7,7.8-2.3c0.1,0,0.2,0,0.3,0c5.1,0.8,7.4,6.4,8.8,10.6l-2.5,0.8c-1.8-5.7-4-8.6-6.9-8.9
	c-2.1-0.2-4.1,0.9-6.3,2.1c-2.7,1.5-5.6,3-8.7,2c-2.1-0.7-3.5-2.3-4.9-3.8c-0.5-0.6-1.1-1.2-1.7-1.8c-3-2.7-7.4-3.3-11-1.6
	c-1,0.5-1.9,1.1-2.8,1.8c-1.6,1.3-3.5,2.3-5.5,2.8C560.7,327.2,559.7,327.3,558.7,327.1z"/>
</svg>
